<?xml version="1.0" encoding="utf-8"?>
<!-- Generator: Adobe Illustrator 24.0.1, SVG Export Plug-In . SVG Version: 6.00 Build 0)  -->
<svg version="1.1" id="Layer_1" xmlns="http://www.w3.org/2000/svg" xmlns:xlink="http://www.w3.org/1999/xlink" x="0px" y="0px"
	 viewBox="0 0 113.39 113.39" style="enable-background:new 0 0 113.39 113.39;" xml:space="preserve">
<style type="text/css">
	.st0{fill-rule:evenodd;clip-rule:evenodd;fill:#008BD2;}
	.st1{fill-rule:evenodd;clip-rule:evenodd;fill:#FFFFFF;}
</style>
<g>
	<path class="st0" d="M79.39,4.12c25.33,0,38.55,18.94,32.56,46.5c-6.57,30.13-28.33,51.52-55.1,62.77
		C23.04,99.35,3.57,71.48,0,33.81c14.93-2.49,26.68-12.96,25.85-29.69l0,0H79.39L79.39,4.12z"/>
	<path class="st1" d="M107.96,49.73c-5.68,26.63-24.93,47.9-51.09,59.2C26.1,95.72,8.39,69.62,4.51,36.94
		c13.74-3.5,24.4-13.85,25.36-28.81l0,0h49.71l0,0C103.93,8.03,113,27.18,107.96,49.73L107.96,49.73z"/>
	<path class="st0" d="M104.42,48.95c-5.62,25.89-23.71,45.2-47.53,56.02C29.83,92.92,12.9,69.58,8.5,39.56
		c12.73-4.35,22.44-14.16,24.62-27.75l0,0h46.47l0,0C101.6,11.71,108.82,28.79,104.42,48.95L104.42,48.95z"/>
	<path class="st1" d="M87.36,42.59h-35.5L62,27.55l6.47-2.23c0.82-0.28,0.58-0.87,0.16-0.87h-6.06l-0.66-6.58
		c-0.02-0.35-0.59-0.49-0.73-0.02l-1.99,6.6h-6.32c-0.54,0-0.61,0.63,0,0.87l5.76,2.08L45.07,42.59H16.39c-1.12,0-1.29,1.9,0,1.99
		l24.91,3.14c-0.84,1.52-2.25,3-2.74,4.71c-0.52,1.78,0.87,3.14,2.25,2.83c2.23-0.49,5.9-5.11,7.4-6.95l0.58-0.91l38.57-2.88
		C88.71,44.43,88.69,42.59,87.36,42.59z"/>
	<path class="st0" d="M47.7,72.14c-0.25,0.95-0.47,1.62-0.66,2.14c0-1.62,0-7.67,0-7.76c0.77-0.04,1.83-0.09,1.83-0.09l0.13-2.62
		v-4.54H38.27c0,0-1.22,3.22-1.55,4.11c-0.34-0.89-1.55-4.11-1.55-4.11H24.22v7.15c0,0,1.16,0.06,1.96,0.1c0,0.1,0,8.68,0,8.75
		c-0.72,0.04,63.53,0.04,62.73,0c0-0.11,0-8.66,0-8.76c0.77-0.04,1.83-0.09,1.83-0.09l0.14-2.62v-4.54H67.61v7.16
		c0,0,1.23,0.06,2.01,0.1c0,0.1,0,7.52,0,8.34c-0.21-0.44-0.51-1.31-0.95-3.23l-7.43-31.73l-5.33-0.05
		C55.92,39.86,47.71,72.09,47.7,72.14z M58.03,73.94c0.11,0.52,0.19,0.96,0.25,1.33c-0.39,0.01-0.6,0.02-1.1,0.04c0,0,0-0.07,0-0.07
		s-1.36,0-2.11,0c0.04-0.15,0.17-0.67,0.33-1.31C56.52,73.94,56.9,73.94,58.03,73.94z"/>
	<path class="st1" d="M59.74,69.18l-2.71-13.31l-3.18,13.31H59.74L59.74,69.18z M76.13,73.37l6.26-7.64v-0.26l0,0
		c0-0.85-0.48-1.65-2.02-1.65l0,0v-1.8h7.75v1.8l0,0c-1.91,0-1.96,0.74-1.96,2.66l0,0v8.86l0,0c0,1.96,0.16,2.65,1.96,2.65l0,0v1.75
		h-7.75v-1.75l0,0c1.75,0,2.02-0.64,2.02-2.65l0,0v-6.89l-6.26,7.69v0.32l0,0c0,1.06,0.58,1.54,2.01,1.54l0,0v1.75H58.89v-1.75l0,0
		c1.38,0,2.28-0.11,2.28-1.49c0-0.85-0.37-2.97-0.96-5.3l0,0h-6.95l-0.9,3.56l0,0c-0.64,2.33-0.42,3.23,2.07,3.23l0,0v1.75H38.36
		v-1.75l0,0c1.91,0,2.12-0.64,2.12-2.65l0,0v-8.27L35.6,79.15l-4.93-12.47v8.81l0,0c0,1.7,0.21,2.49,2.07,2.49l0,0v1.75H26.8v-1.75
		l0,0c2.01,0,2.12-1.22,2.12-2.92l0,0v-8.59l0,0c0-1.54,0-2.66-1.96-2.66l0,0v-1.8h6.31l3.45,9.12l3.45-9.12h6.1v1.8l0,0
		c-1.91,0-1.96,0.74-1.96,2.66l0,0v8.86l0,0c0,1.7,0.16,2.23,0.69,2.39c1.17,0.42,3.34,0.32,3.98-0.96c0.43-0.8,0.9-2.12,1.38-3.92
		l0,0l8.22-32.31L66,72.26l0,0c0.8,3.45,1.27,4.29,2.02,5.04c0.74,0.64,3.18,1.12,4.03,0.16c0.21-0.21,0.32-0.59,0.32-2.12l0,0
		v-8.86l0,0c0-2.02-0.16-2.66-2.01-2.66l0,0v-1.8h7.8v1.8l0,0c-1.91,0-2.01,0.8-2.01,2.66l0,0V73.37L76.13,73.37z"/>
</g>
</svg>
